STARTFONT 2.1
FONT -FontForge-DigitalDisco-Medium-I-Normal--16-150-75-75-P-78-ISO10646-1
SIZE 15 75 75
FONTBOUNDINGBOX 16 16 -2 -4
COMMENT "Generated by fontforge, http://fontforge.sourceforge.net"
COMMENT "jeti"
STARTPROPERTIES 39
FOUNDRY "FontForge"
FAMILY_NAME "DigitalDisco"
WEIGHT_NAME "Medium"
SLANT "I"
SETWIDTH_NAME "Normal"
ADD_STYLE_NAME ""
PIXEL_SIZE 16
POINT_SIZE 150
RESOLUTION_X 75
RESOLUTION_Y 75
SPACING "P"
AVERAGE_WIDTH 78
CHARSET_REGISTRY "ISO10646"
CHARSET_ENCODING "1"
FONTNAME_REGISTRY ""
CHARSET_COLLECTIONS "ISO8859-2 ISO8859-9 ISO8859-4 ISO10646-1"
FONT_NAME "DigitalDisco"
FACE_NAME "DigitalDisco"
COPYRIGHT "jeti"
FONT_VERSION "001.000"
FONT_ASCENT 12
FONT_DESCENT 4
UNDERLINE_POSITION -2
UNDERLINE_THICKNESS 1
X_HEIGHT 7
CAP_HEIGHT 9
RAW_ASCENT 750
RAW_DESCENT 250
NORM_SPACE 5
RELATIVE_WEIGHT 50
RELATIVE_SETWIDTH 50
SUPERSCRIPT_X 0
SUPERSCRIPT_Y 7
SUPERSCRIPT_SIZE 11
SUBSCRIPT_X 0
SUBSCRIPT_Y 2
SUBSCRIPT_SIZE 11
AVG_LOWERCASE_WIDTH 80
AVG_UPPERCASE_WIDTH 84
ENDPROPERTIES
CHARS 354
STARTCHAR space
ENCODING 32
SWIDTH 312 0
DWIDTH 5 0
BBX 1 1 0 0
BITMAP
00
ENDCHAR
STARTCHAR exclam
ENCODING 33
SWIDTH 187 0
DWIDTH 3 0
BBX 2 10 0 0
BITMAP
C0
C0
C0
C0
C0
C0
C0
00
C0
C0
ENDCHAR
STARTCHAR quotedbl
ENCODING 34
SWIDTH 375 0
DWIDTH 6 0
BBX 5 3 0 7
BITMAP
D8
D8
D8
ENDCHAR
STARTCHAR numbersign
ENCODING 35
SWIDTH 562 0
DWIDTH 9 0
BBX 8 10 0 0
BITMAP
33
33
FF
FF
66
66
FF
FF
CC
CC
ENDCHAR
STARTCHAR dollar
ENCODING 36
SWIDTH 437 0
DWIDTH 7 0
BBX 6 12 0 -2
BITMAP
30
30
7C
FC
B0
F8
7C
34
FC
F8
30
30
ENDCHAR
STARTCHAR percent
ENCODING 37
SWIDTH 687 0
DWIDTH 11 0
BBX 10 10 0 0
BITMAP
6300
B300
B600
6600
0C00
0C00
1980
1AC0
32C0
3180
ENDCHAR
STARTCHAR ampersand
ENCODING 38
SWIDTH 625 0
DWIDTH 10 0
BBX 9 11 0 0
BITMAP
3C00
7C00
7000
3D80
7F80
E700
C300
C300
E700
7F80
3D80
ENDCHAR
STARTCHAR quotesingle
ENCODING 39
SWIDTH 187 0
DWIDTH 3 0
BBX 2 3 0 7
BITMAP
C0
C0
C0
ENDCHAR
STARTCHAR parenleft
ENCODING 40
SWIDTH 250 0
DWIDTH 4 0
BBX 3 12 0 -2
BITMAP
60
C0
C0
C0
C0
C0
C0
C0
C0
C0
C0
60
ENDCHAR
STARTCHAR parenright
ENCODING 41
SWIDTH 250 0
DWIDTH 4 0
BBX 3 12 0 -2
BITMAP
C0
60
60
60
60
60
60
60
60
60
60
C0
ENDCHAR
STARTCHAR asterisk
ENCODING 42
SWIDTH 437 0
DWIDTH 7 0
BBX 6 5 0 3
BITMAP
30
FC
78
FC
30
ENDCHAR
STARTCHAR plus
ENCODING 43
SWIDTH 437 0
DWIDTH 7 0
BBX 6 6 0 1
BITMAP
30
30
FC
FC
30
30
ENDCHAR
STARTCHAR comma
ENCODING 44
SWIDTH 187 0
DWIDTH 3 0
BBX 2 3 0 -1
BITMAP
C0
C0
80
ENDCHAR
STARTCHAR hyphen
ENCODING 45
SWIDTH 312 0
DWIDTH 5 0
BBX 4 2 0 3
BITMAP
F0
F0
ENDCHAR
STARTCHAR period
ENCODING 46
SWIDTH 187 0
DWIDTH 3 0
BBX 2 2 0 0
BITMAP
C0
C0
ENDCHAR
STARTCHAR slash
ENCODING 47
SWIDTH 312 0
DWIDTH 5 0
BBX 4 10 0 0
BITMAP
30
30
30
60
60
60
60
C0
C0
C0
ENDCHAR
STARTCHAR zero
ENCODING 48
SWIDTH 562 0
DWIDTH 9 0
BBX 8 10 0 0
BITMAP
3C
7E
E7
CF
DF
FB
F3
E7
7E
3C
ENDCHAR
STARTCHAR one
ENCODING 49
SWIDTH 250 0
DWIDTH 4 0
BBX 3 10 0 0
BITMAP
C0
E0
60
60
60
60
60
60
60
60
ENDCHAR
STARTCHAR two
ENCODING 50
SWIDTH 500 0
DWIDTH 8 0
BBX 7 10 0 0
BITMAP
38
7C
EE
C6
0E
1C
38
70
FE
FE
ENDCHAR
STARTCHAR three
ENCODING 51
SWIDTH 562 0
DWIDTH 9 0
BBX 8 10 0 0
BITMAP
7E
7E
0C
1E
1F
03
C3
E7
7E
3C
ENDCHAR
STARTCHAR four
ENCODING 52
SWIDTH 562 0
DWIDTH 9 0
BBX 8 10 0 0
BITMAP
C0
C0
C6
C6
C6
E6
7F
3F
06
06
ENDCHAR
STARTCHAR five
ENCODING 53
SWIDTH 500 0
DWIDTH 8 0
BBX 7 10 0 0
BITMAP
7C
7C
60
78
7C
0E
06
CE
FC
78
ENDCHAR
STARTCHAR six
ENCODING 54
SWIDTH 562 0
DWIDTH 9 0
BBX 8 10 0 0
BITMAP
38
78
E0
FC
FE
E7
C3
E7
7E
3C
ENDCHAR
STARTCHAR seven
ENCODING 55
SWIDTH 437 0
DWIDTH 7 0
BBX 6 10 0 0
BITMAP
FC
FC
0C
18
38
30
30
30
30
30
ENDCHAR
STARTCHAR eight
ENCODING 56
SWIDTH 562 0
DWIDTH 9 0
BBX 8 10 0 0
BITMAP
3C
7E
66
24
7E
E7
C3
E7
7E
3C
ENDCHAR
STARTCHAR nine
ENCODING 57
SWIDTH 562 0
DWIDTH 9 0
BBX 8 10 0 0
BITMAP
3C
7E
E7
C3
E7
7F
3F
07
1E
1C
ENDCHAR
STARTCHAR colon
ENCODING 58
SWIDTH 187 0
DWIDTH 3 0
BBX 2 6 0 1
BITMAP
C0
C0
00
00
C0
C0
ENDCHAR
STARTCHAR semicolon
ENCODING 59
SWIDTH 187 0
DWIDTH 3 0
BBX 2 7 0 0
BITMAP
C0
C0
00
00
C0
C0
80
ENDCHAR
STARTCHAR less
ENCODING 60
SWIDTH 562 0
DWIDTH 9 0
BBX 8 8 0 0
BITMAP
03
0F
3C
F0
F0
3C
0F
03
ENDCHAR
STARTCHAR equal
ENCODING 61
SWIDTH 437 0
DWIDTH 7 0
BBX 6 6 0 1
BITMAP
FC
FC
00
00
FC
FC
ENDCHAR
STARTCHAR greater
ENCODING 62
SWIDTH 562 0
DWIDTH 9 0
BBX 8 8 0 0
BITMAP
C0
F0
3C
0F
0F
3C
F0
C0
ENDCHAR
STARTCHAR question
ENCODING 63
SWIDTH 562 0
DWIDTH 9 0
BBX 8 10 0 0
BITMAP
3C
7E
E7
C7
0E
1C
18
00
18
18
ENDCHAR
STARTCHAR at
ENCODING 64
SWIDTH 625 0
DWIDTH 10 0
BBX 9 10 0 0
BITMAP
3E00
7F00
E380
C180
CF80
CF80
CE00
E000
7E00
3E00
ENDCHAR
STARTCHAR A
ENCODING 65
SWIDTH 562 0
DWIDTH 9 0
BBX 8 10 0 0
BITMAP
3C
7E
E7
C3
FF
FF
C3
C3
C3
C3
ENDCHAR
STARTCHAR B
ENCODING 66
SWIDTH 562 0
DWIDTH 9 0
BBX 8 10 0 0
BITMAP
78
FC
CC
FC
FE
C7
C3
C7
FE
FC
ENDCHAR
STARTCHAR C
ENCODING 67
SWIDTH 625 0
DWIDTH 10 0
BBX 9 10 0 0
BITMAP
3E00
7F00
E380
C100
C000
C000
C100
E380
7F00
3E00
ENDCHAR
STARTCHAR D
ENCODING 68
SWIDTH 562 0
DWIDTH 9 0
BBX 8 10 0 0
BITMAP
7C
FE
C7
C3
C3
C3
C3
C7
FE
FC
ENDCHAR
STARTCHAR E
ENCODING 69
SWIDTH 437 0
DWIDTH 7 0
BBX 6 10 0 0
BITMAP
3C
7C
E0
C0
F8
F8
C0
E0
7C
3C
ENDCHAR
STARTCHAR F
ENCODING 70
SWIDTH 437 0
DWIDTH 7 0
BBX 6 10 0 0
BITMAP
3C
7C
E0
C0
F8
F8
C0
C0
C0
C0
ENDCHAR
STARTCHAR G
ENCODING 71
SWIDTH 625 0
DWIDTH 10 0
BBX 9 10 0 0
BITMAP
3E00
7F00
E380
C180
C000
C780
C180
E380
7F00
3E00
ENDCHAR
STARTCHAR H
ENCODING 72
SWIDTH 562 0
DWIDTH 9 0
BBX 8 10 0 0
BITMAP
C3
C3
C3
FF
FF
C3
C3
C3
C3
C3
ENDCHAR
STARTCHAR I
ENCODING 73
SWIDTH 187 0
DWIDTH 3 0
BBX 2 10 0 0
BITMAP
C0
C0
C0
C0
C0
C0
C0
C0
C0
C0
ENDCHAR
STARTCHAR J
ENCODING 74
SWIDTH 312 0
DWIDTH 5 0
BBX 4 11 0 -1
BITMAP
70
70
30
30
30
30
30
30
70
E0
C0
ENDCHAR
STARTCHAR K
ENCODING 75
SWIDTH 500 0
DWIDTH 8 0
BBX 7 10 0 0
BITMAP
CC
CC
CC
DC
F8
FC
CE
C6
C6
C6
ENDCHAR
STARTCHAR L
ENCODING 76
SWIDTH 375 0
DWIDTH 6 0
BBX 5 10 0 0
BITMAP
C0
C0
C0
C0
C0
C0
C0
E0
78
38
ENDCHAR
STARTCHAR M
ENCODING 77
SWIDTH 812 0
DWIDTH 13 0
BBX 12 10 0 0
BITMAP
39C0
7FE0
EF70
C630
C630
C630
C630
C630
C630
C630
ENDCHAR
STARTCHAR N
ENCODING 78
SWIDTH 562 0
DWIDTH 9 0
BBX 8 10 0 0
BITMAP
3C
7E
E7
C3
C3
C3
C3
C3
C3
C3
ENDCHAR
STARTCHAR O
ENCODING 79
SWIDTH 625 0
DWIDTH 10 0
BBX 9 10 0 0
BITMAP
3E00
7F00
E380
C180
C180
C180
C180
E380
7F00
3E00
ENDCHAR
STARTCHAR P
ENCODING 80
SWIDTH 562 0
DWIDTH 9 0
BBX 8 10 0 0
BITMAP
3C
7E
E7
C3
C3
E7
FE
DC
C0
C0
ENDCHAR
STARTCHAR Q
ENCODING 81
SWIDTH 625 0
DWIDTH 10 0
BBX 9 12 0 -2
BITMAP
3E00
7F00
E380
C180
C180
C180
C180
E380
7F00
3E00
0700
0300
ENDCHAR
STARTCHAR R
ENCODING 82
SWIDTH 562 0
DWIDTH 9 0
BBX 8 10 0 0
BITMAP
3C
7E
E7
C3
C3
E7
FE
FE
C7
C3
ENDCHAR
STARTCHAR S
ENCODING 83
SWIDTH 562 0
DWIDTH 9 0
BBX 8 10 0 0
BITMAP
3C
7E
60
7C
3E
07
C3
E7
7E
3C
ENDCHAR
STARTCHAR T
ENCODING 84
SWIDTH 437 0
DWIDTH 7 0
BBX 6 10 0 0
BITMAP
FC
FC
30
30
30
30
30
30
30
30
ENDCHAR
STARTCHAR U
ENCODING 85
SWIDTH 562 0
DWIDTH 9 0
BBX 8 10 0 0
BITMAP
C3
C3
C3
C3
C3
C3
C3
E7
7E
3C
ENDCHAR
STARTCHAR V
ENCODING 86
SWIDTH 562 0
DWIDTH 9 0
BBX 8 10 0 0
BITMAP
C3
C3
C3
66
66
66
3C
3C
18
18
ENDCHAR
STARTCHAR W
ENCODING 87
SWIDTH 812 0
DWIDTH 13 0
BBX 12 10 0 0
BITMAP
C630
C630
C630
C630
C630
C630
C630
EF70
7FE0
39C0
ENDCHAR
STARTCHAR X
ENCODING 88
SWIDTH 562 0
DWIDTH 9 0
BBX 8 10 0 0
BITMAP
C3
E7
7E
3C
18
18
3C
7E
E7
C3
ENDCHAR
STARTCHAR Y
ENCODING 89
SWIDTH 562 0
DWIDTH 9 0
BBX 8 10 0 0
BITMAP
C3
C3
C3
C3
E7
7E
3C
18
18
18
ENDCHAR
STARTCHAR Z
ENCODING 90
SWIDTH 500 0
DWIDTH 8 0
BBX 7 10 0 0
BITMAP
FE
FE
0C
1C
18
30
70
60
FE
FE
ENDCHAR
STARTCHAR bracketleft
ENCODING 91
SWIDTH 250 0
DWIDTH 4 0
BBX 3 12 0 -2
BITMAP
E0
C0
C0
C0
C0
C0
C0
C0
C0
C0
C0
E0
ENDCHAR
STARTCHAR backslash
ENCODING 92
SWIDTH 312 0
DWIDTH 5 0
BBX 4 10 0 0
BITMAP
C0
C0
C0
60
60
60
60
30
30
30
ENDCHAR
STARTCHAR bracketright
ENCODING 93
SWIDTH 250 0
DWIDTH 4 0
BBX 3 12 0 -2
BITMAP
E0
60
60
60
60
60
60
60
60
60
60
E0
ENDCHAR
STARTCHAR asciicircum
ENCODING 94
SWIDTH 437 0
DWIDTH 7 0
BBX 6 4 0 6
BITMAP
30
78
78
CC
ENDCHAR
STARTCHAR underscore
ENCODING 95
SWIDTH 562 0
DWIDTH 9 0
BBX 8 2 0 -2
BITMAP
FF
FF
ENDCHAR
STARTCHAR grave
ENCODING 96
SWIDTH 250 0
DWIDTH 4 0
BBX 3 3 0 7
BITMAP
C0
E0
60
ENDCHAR
STARTCHAR a
ENCODING 97
SWIDTH 562 0
DWIDTH 9 0
BBX 8 8 0 0
BITMAP
3C
7E
E7
C3
C3
E7
7F
3F
ENDCHAR
STARTCHAR b
ENCODING 98
SWIDTH 562 0
DWIDTH 9 0
BBX 8 10 0 0
BITMAP
C0
C0
DC
FE
E7
C3
C3
E7
7E
3C
ENDCHAR
STARTCHAR c
ENCODING 99
SWIDTH 500 0
DWIDTH 8 0
BBX 7 8 0 0
BITMAP
3C
7E
E6
C0
C0
E6
7E
3C
ENDCHAR
STARTCHAR d
ENCODING 100
SWIDTH 562 0
DWIDTH 9 0
BBX 8 10 0 0
BITMAP
03
03
3B
7F
E7
C3
C3
E7
7E
3C
ENDCHAR
STARTCHAR e
ENCODING 101
SWIDTH 562 0
DWIDTH 9 0
BBX 8 8 0 0
BITMAP
3C
7E
EE
DC
FB
F7
7E
3C
ENDCHAR
STARTCHAR f
ENCODING 102
SWIDTH 375 0
DWIDTH 6 0
BBX 5 10 0 0
BITMAP
38
78
E0
C0
F0
F0
C0
C0
C0
C0
ENDCHAR
STARTCHAR g
ENCODING 103
SWIDTH 562 0
DWIDTH 9 0
BBX 8 11 0 -3
BITMAP
3C
7E
E7
C3
C3
E7
7F
3B
07
1E
1C
ENDCHAR
STARTCHAR h
ENCODING 104
SWIDTH 562 0
DWIDTH 9 0
BBX 8 10 0 0
BITMAP
C0
C0
DC
FE
E7
C3
C3
C3
C3
C3
ENDCHAR
STARTCHAR i
ENCODING 105
SWIDTH 250 0
DWIDTH 4 0
BBX 3 10 0 0
BITMAP
C0
C0
00
C0
C0
C0
C0
C0
E0
60
ENDCHAR
STARTCHAR j
ENCODING 106
SWIDTH 250 0
DWIDTH 4 0
BBX 3 13 0 -3
BITMAP
60
60
00
60
60
60
60
60
60
60
60
E0
C0
ENDCHAR
STARTCHAR k
ENCODING 107
SWIDTH 500 0
DWIDTH 8 0
BBX 7 10 0 0
BITMAP
C0
C0
CC
DC
F8
FC
CE
C6
C6
C6
ENDCHAR
STARTCHAR l
ENCODING 108
SWIDTH 250 0
DWIDTH 4 0
BBX 3 10 0 0
BITMAP
C0
C0
C0
C0
C0
C0
C0
C0
E0
60
ENDCHAR
STARTCHAR m
ENCODING 109
SWIDTH 812 0
DWIDTH 13 0
BBX 12 8 0 0
BITMAP
39C0
7FE0
EF70
C630
C630
C630
C630
C630
ENDCHAR
STARTCHAR n
ENCODING 110
SWIDTH 562 0
DWIDTH 9 0
BBX 8 8 0 0
BITMAP
3C
7E
E7
C3
C3
C3
C3
C3
ENDCHAR
STARTCHAR o
ENCODING 111
SWIDTH 562 0
DWIDTH 9 0
BBX 8 8 0 0
BITMAP
3C
7E
E7
C3
C3
E7
7E
3C
ENDCHAR
STARTCHAR p
ENCODING 112
SWIDTH 562 0
DWIDTH 9 0
BBX 8 10 0 -2
BITMAP
3C
7E
E7
C3
C3
E7
FE
DC
C0
C0
ENDCHAR
STARTCHAR q
ENCODING 113
SWIDTH 562 0
DWIDTH 9 0
BBX 8 10 0 -2
BITMAP
3C
7E
E7
C3
C3
E7
7F
3B
03
03
ENDCHAR
STARTCHAR r
ENCODING 114
SWIDTH 375 0
DWIDTH 6 0
BBX 5 8 0 0
BITMAP
38
78
E0
C0
C0
C0
C0
C0
ENDCHAR
STARTCHAR s
ENCODING 115
SWIDTH 500 0
DWIDTH 8 0
BBX 7 8 0 0
BITMAP
7C
FC
F8
7C
0E
0E
FC
F8
ENDCHAR
STARTCHAR t
ENCODING 116
SWIDTH 312 0
DWIDTH 5 0
BBX 4 10 0 0
BITMAP
C0
C0
F0
F0
C0
C0
C0
C0
F0
70
ENDCHAR
STARTCHAR u
ENCODING 117
SWIDTH 562 0
DWIDTH 9 0
BBX 8 8 0 0
BITMAP
C3
C3
C3
C3
C3
E7
7E
3C
ENDCHAR
STARTCHAR v
ENCODING 118
SWIDTH 562 0
DWIDTH 9 0
BBX 8 8 0 0
BITMAP
C3
C3
66
66
3C
3C
18
18
ENDCHAR
STARTCHAR w
ENCODING 119
SWIDTH 812 0
DWIDTH 13 0
BBX 12 8 0 0
BITMAP
C630
C630
C630
C630
C630
EF70
7FE0
39C0
ENDCHAR
STARTCHAR x
ENCODING 120
SWIDTH 500 0
DWIDTH 8 0
BBX 7 8 0 0
BITMAP
C6
EE
7C
38
38
7C
EE
C6
ENDCHAR
STARTCHAR y
ENCODING 121
SWIDTH 562 0
DWIDTH 9 0
BBX 8 11 0 -3
BITMAP
C3
C3
C3
C3
C3
E7
7F
3B
07
1E
1C
ENDCHAR
STARTCHAR z
ENCODING 122
SWIDTH 500 0
DWIDTH 8 0
BBX 7 8 0 0
BITMAP
FE
FE
1C
18
38
70
FE
FE
ENDCHAR
STARTCHAR braceleft
ENCODING 123
SWIDTH 250 0
DWIDTH 4 0
BBX 4 12 -1 -2
BITMAP
30
60
60
60
60
C0
60
60
60
60
60
30
ENDCHAR
STARTCHAR bar
ENCODING 124
SWIDTH 187 0
DWIDTH 3 0
BBX 2 12 0 -2
BITMAP
C0
C0
C0
C0
C0
C0
C0
C0
C0
C0
C0
C0
ENDCHAR
STARTCHAR braceright
ENCODING 125
SWIDTH 312 0
DWIDTH 5 0
BBX 4 12 0 -2
BITMAP
C0
60
60
60
60
30
60
60
60
60
60
C0
ENDCHAR
STARTCHAR asciitilde
ENCODING 126
SWIDTH 500 0
DWIDTH 8 0
BBX 7 3 0 3
BITMAP
66
FE
CC
ENDCHAR
STARTCHAR uni00A0
ENCODING 160
SWIDTH 312 0
DWIDTH 5 0
BBX 1 1 0 0
BITMAP
00
ENDCHAR
STARTCHAR exclamdown
ENCODING 161
SWIDTH 187 0
DWIDTH 3 0
BBX 2 10 0 -2
BITMAP
C0
C0
00
C0
C0
C0
C0
C0
C0
C0
ENDCHAR
STARTCHAR cent
ENCODING 162
SWIDTH 437 0
DWIDTH 7 0
BBX 6 9 0 0
BITMAP
30
3C
7C
D0
D0
D0
7C
3C
30
ENDCHAR
STARTCHAR sterling
ENCODING 163
SWIDTH 437 0
DWIDTH 7 0
BBX 6 10 0 0
BITMAP
1C
3C
30
7C
7C
30
60
C0
FC
FC
ENDCHAR
STARTCHAR currency
ENCODING 164
SWIDTH 437 0
DWIDTH 7 0
BBX 6 6 0 2
BITMAP
CC
FC
48
48
FC
CC
ENDCHAR
STARTCHAR yen
ENCODING 165
SWIDTH 562 0
DWIDTH 9 0
BBX 8 10 0 0
BITMAP
C3
C3
66
24
7E
7E
18
7E
7E
18
ENDCHAR
STARTCHAR brokenbar
ENCODING 166
SWIDTH 187 0
DWIDTH 3 0
BBX 2 12 0 -2
BITMAP
C0
C0
C0
C0
C0
00
00
C0
C0
C0
C0
C0
ENDCHAR
STARTCHAR section
ENCODING 167
SWIDTH 375 0
DWIDTH 6 0
BBX 5 12 0 -2
BITMAP
78
F8
E0
70
F0
D8
D8
F8
70
38
F8
F0
ENDCHAR
STARTCHAR dieresis
ENCODING 168
SWIDTH 375 0
DWIDTH 6 0
BBX 5 2 0 8
BITMAP
D8
D8
ENDCHAR
STARTCHAR copyright
ENCODING 169
SWIDTH 625 0
DWIDTH 10 0
BBX 9 9 0 0
BITMAP
3E00
4100
9C80
BE80
B080
BE80
9C80
4100
3E00
ENDCHAR
STARTCHAR ordfeminine
ENCODING 170
SWIDTH 312 0
DWIDTH 5 0
BBX 4 7 0 3
BITMAP
60
B0
B0
70
00
F0
F0
ENDCHAR
STARTCHAR guillemotleft
ENCODING 171
SWIDTH 562 0
DWIDTH 9 0
BBX 8 5 0 1
BITMAP
77
EE
CC
EE
77
ENDCHAR
STARTCHAR logicalnot
ENCODING 172
SWIDTH 500 0
DWIDTH 8 0
BBX 7 4 0 3
BITMAP
FE
FE
06
06
ENDCHAR
STARTCHAR registered
ENCODING 174
SWIDTH 625 0
DWIDTH 10 0
BBX 9 9 0 0
BITMAP
3E00
4100
9C80
B680
BC80
B680
B680
4100
3E00
ENDCHAR
STARTCHAR macron
ENCODING 175
SWIDTH 500 0
DWIDTH 8 0
BBX 7 2 0 8
BITMAP
FE
FE
ENDCHAR
STARTCHAR degree
ENCODING 176
SWIDTH 312 0
DWIDTH 5 0
BBX 4 4 0 6
BITMAP
60
B0
B0
60
ENDCHAR
STARTCHAR plusminus
ENCODING 177
SWIDTH 437 0
DWIDTH 7 0
BBX 6 7 0 0
BITMAP
30
30
FC
FC
30
FC
FC
ENDCHAR
STARTCHAR uni00B2
ENCODING 178
SWIDTH 250 0
DWIDTH 4 0
BBX 3 4 0 6
BITMAP
E0
60
40
E0
ENDCHAR
STARTCHAR uni00B3
ENCODING 179
SWIDTH 250 0
DWIDTH 4 0
BBX 3 4 0 6
BITMAP
E0
60
60
E0
ENDCHAR
STARTCHAR acute
ENCODING 180
SWIDTH 250 0
DWIDTH 4 0
BBX 3 3 0 8
BITMAP
60
C0
C0
ENDCHAR
STARTCHAR uni00B5
ENCODING 181
SWIDTH 562 0
DWIDTH 9 0
BBX 8 10 0 -2
BITMAP
C3
C3
C3
C3
C3
E7
FF
DD
C0
C0
ENDCHAR
STARTCHAR paragraph
ENCODING 182
SWIDTH 625 0
DWIDTH 10 0
BBX 9 12 0 -2
BITMAP
3F80
7F80
FD80
FD80
FD80
FD80
7D80
3D80
0D80
0D80
0D80
0D80
ENDCHAR
STARTCHAR periodcentered
ENCODING 183
SWIDTH 187 0
DWIDTH 3 0
BBX 2 2 0 3
BITMAP
C0
C0
ENDCHAR
STARTCHAR cedilla
ENCODING 184
SWIDTH 250 0
DWIDTH 4 0
BBX 3 3 0 -3
BITMAP
40
60
C0
ENDCHAR
STARTCHAR uni00B9
ENCODING 185
SWIDTH 250 0
DWIDTH 4 0
BBX 3 4 0 6
BITMAP
E0
60
60
60
ENDCHAR
STARTCHAR ordmasculine
ENCODING 186
SWIDTH 312 0
DWIDTH 5 0
BBX 4 7 0 3
BITMAP
60
B0
B0
60
00
F0
F0
ENDCHAR
STARTCHAR guillemotright
ENCODING 187
SWIDTH 562 0
DWIDTH 9 0
BBX 8 5 0 1
BITMAP
EE
77
33
77
EE
ENDCHAR
STARTCHAR onequarter
ENCODING 188
SWIDTH 687 0
DWIDTH 11 0
BBX 10 10 0 0
BITMAP
E300
6300
6600
6600
0C00
0C00
1940
1940
31C0
3040
ENDCHAR
STARTCHAR onehalf
ENCODING 189
SWIDTH 687 0
DWIDTH 11 0
BBX 10 10 0 0
BITMAP
E300
6300
6600
6600
0C00
0C00
19C0
18C0
3080
31C0
ENDCHAR
STARTCHAR threequarters
ENCODING 190
SWIDTH 687 0
DWIDTH 11 0
BBX 10 10 0 0
BITMAP
E300
6300
6600
E600
0C00
0C00
1940
1940
31C0
3040
ENDCHAR
STARTCHAR questiondown
ENCODING 191
SWIDTH 562 0
DWIDTH 9 0
BBX 8 10 0 -2
BITMAP
18
18
00
18
38
70
E3
E7
7E
3C
ENDCHAR
STARTCHAR Agrave
ENCODING 192
SWIDTH 562 0
DWIDTH 9 0
BBX 8 12 0 0
BITMAP
30
18
00
3C
7E
E7
C3
FF
FF
C3
C3
C3
ENDCHAR
STARTCHAR Aacute
ENCODING 193
SWIDTH 562 0
DWIDTH 9 0
BBX 8 12 0 0
BITMAP
0C
18
00
3C
7E
E7
C3
FF
FF
C3
C3
C3
ENDCHAR
STARTCHAR Acircumflex
ENCODING 194
SWIDTH 562 0
DWIDTH 9 0
BBX 8 12 0 0
BITMAP
18
3C
00
3C
7E
E7
C3
FF
FF
C3
C3
C3
ENDCHAR
STARTCHAR Atilde
ENCODING 195
SWIDTH 562 0
DWIDTH 9 0
BBX 8 12 0 0
BITMAP
3A
5C
00
3C
7E
E7
C3
FF
FF
C3
C3
C3
ENDCHAR
STARTCHAR Adieresis
ENCODING 196
SWIDTH 562 0
DWIDTH 9 0
BBX 8 12 0 0
BITMAP
66
66
00
3C
7E
E7
C3
FF
FF
C3
C3
C3
ENDCHAR
STARTCHAR Aring
ENCODING 197
SWIDTH 562 0
DWIDTH 9 0
BBX 8 12 0 0
BITMAP
18
24
24
3C
7E
E7
C3
FF
FF
C3
C3
C3
ENDCHAR
STARTCHAR AE
ENCODING 198
SWIDTH 750 0
DWIDTH 12 0
BBX 11 10 0 0
BITMAP
3DE0
7FE0
E700
C600
FFC0
FFC0
C600
C700
C7E0
C7E0
ENDCHAR
STARTCHAR Ccedilla
ENCODING 199
SWIDTH 625 0
DWIDTH 10 0
BBX 9 13 0 -3
BITMAP
3E00
7F00
E380
C100
C000
C000
C100
E380
7F00
3E00
0800
0C00
1800
ENDCHAR
STARTCHAR Egrave
ENCODING 200
SWIDTH 437 0
DWIDTH 7 0
BBX 6 12 0 0
BITMAP
30
18
00
3C
7C
E0
F8
F8
C0
E0
7C
3C
ENDCHAR
STARTCHAR Eacute
ENCODING 201
SWIDTH 437 0
DWIDTH 7 0
BBX 6 12 0 0
BITMAP
18
30
00
3C
7C
E0
F8
F8
C0
E0
7C
3C
ENDCHAR
STARTCHAR Ecircumflex
ENCODING 202
SWIDTH 437 0
DWIDTH 7 0
BBX 6 12 0 0
BITMAP
30
78
00
3C
7C
E0
F8
F8
C0
E0
7C
3C
ENDCHAR
STARTCHAR Edieresis
ENCODING 203
SWIDTH 437 0
DWIDTH 7 0
BBX 6 12 0 0
BITMAP
6C
6C
00
3C
7C
E0
F8
F8
C0
E0
7C
3C
ENDCHAR
STARTCHAR Igrave
ENCODING 204
SWIDTH 187 0
DWIDTH 3 0
BBX 3 12 -1 0
BITMAP
C0
60
00
60
60
60
60
60
60
60
60
60
ENDCHAR
STARTCHAR Iacute
ENCODING 205
SWIDTH 187 0
DWIDTH 3 0
BBX 3 12 -1 0
BITMAP
60
C0
00
60
60
60
60
60
60
60
60
60
ENDCHAR
STARTCHAR Icircumflex
ENCODING 206
SWIDTH 250 0
DWIDTH 4 0
BBX 4 12 -1 0
BITMAP
60
F0
00
60
60
60
60
60
60
60
60
60
ENDCHAR
STARTCHAR Idieresis
ENCODING 207
SWIDTH 250 0
DWIDTH 4 0
BBX 4 12 -1 0
BITMAP
90
90
00
60
60
60
60
60
60
60
60
60
ENDCHAR
STARTCHAR Eth
ENCODING 208
SWIDTH 562 0
DWIDTH 9 0
BBX 9 10 -1 0
BITMAP
3E00
7F00
6380
6180
F980
F980
6180
6380
7F00
7E00
ENDCHAR
STARTCHAR Ntilde
ENCODING 209
SWIDTH 562 0
DWIDTH 9 0
BBX 8 12 0 0
BITMAP
3A
5C
00
3C
7E
E7
C3
C3
C3
C3
C3
C3
ENDCHAR
STARTCHAR Ograve
ENCODING 210
SWIDTH 625 0
DWIDTH 10 0
BBX 9 12 0 0
BITMAP
1800
0C00
0000
3E00
7F00
E380
C180
C180
C180
E380
7F00
3E00
ENDCHAR
STARTCHAR Oacute
ENCODING 211
SWIDTH 625 0
DWIDTH 10 0
BBX 9 12 0 0
BITMAP
0C00
1800
0000
3E00
7F00
E380
C180
C180
C180
E380
7F00
3E00
ENDCHAR
STARTCHAR Ocircumflex
ENCODING 212
SWIDTH 625 0
DWIDTH 10 0
BBX 9 12 0 0
BITMAP
0800
1C00
0000
3E00
7F00
E380
C180
C180
C180
E380
7F00
3E00
ENDCHAR
STARTCHAR Otilde
ENCODING 213
SWIDTH 625 0
DWIDTH 10 0
BBX 9 12 0 0
BITMAP
1A00
2C00
0000
3E00
7F00
E380
C180
C180
C180
E380
7F00
3E00
ENDCHAR
STARTCHAR Odieresis
ENCODING 214
SWIDTH 625 0
DWIDTH 10 0
BBX 9 12 0 0
BITMAP
3600
3600
0000
3E00
7F00
E380
C180
C180
C180
E380
7F00
3E00
ENDCHAR
STARTCHAR multiply
ENCODING 215
SWIDTH 375 0
DWIDTH 6 0
BBX 5 6 0 1
BITMAP
D8
F8
70
70
F8
D8
ENDCHAR
STARTCHAR Oslash
ENCODING 216
SWIDTH 625 0
DWIDTH 10 0
BBX 9 10 0 0
BITMAP
3D80
7F80
E700
CF80
CD80
D980
F980
7380
FF00
DE00
ENDCHAR
STARTCHAR Ugrave
ENCODING 217
SWIDTH 562 0
DWIDTH 9 0
BBX 8 12 0 0
BITMAP
30
18
00
C3
C3
C3
C3
C3
C3
E7
7E
3C
ENDCHAR
STARTCHAR Uacute
ENCODING 218
SWIDTH 562 0
DWIDTH 9 0
BBX 8 12 0 0
BITMAP
0C
18
00
C3
C3
C3
C3
C3
C3
E7
7E
3C
ENDCHAR
STARTCHAR Ucircumflex
ENCODING 219
SWIDTH 562 0
DWIDTH 9 0
BBX 8 12 0 0
BITMAP
18
3C
00
C3
C3
C3
C3
C3
C3
E7
7E
3C
ENDCHAR
STARTCHAR Udieresis
ENCODING 220
SWIDTH 562 0
DWIDTH 9 0
BBX 8 12 0 0
BITMAP
66
66
00
C3
C3
C3
C3
C3
C3
E7
7E
3C
ENDCHAR
STARTCHAR Yacute
ENCODING 221
SWIDTH 562 0
DWIDTH 9 0
BBX 8 12 0 0
BITMAP
0C
18
C3
C3
C3
C3
E7
7E
3C
18
18
18
ENDCHAR
STARTCHAR Thorn
ENCODING 222
SWIDTH 562 0
DWIDTH 9 0
BBX 8 10 0 0
BITMAP
C0
DC
FE
E7
C3
C3
E7
FE
DC
C0
ENDCHAR
STARTCHAR germandbls
ENCODING 223
SWIDTH 562 0
DWIDTH 9 0
BBX 8 10 0 0
BITMAP
78
FC
CC
CC
CE
C7
C3
C7
CE
CC
ENDCHAR
STARTCHAR agrave
ENCODING 224
SWIDTH 562 0
DWIDTH 9 0
BBX 8 11 0 0
BITMAP
18
0C
00
3C
7E
E7
C3
C3
E7
7F
3F
ENDCHAR
STARTCHAR aacute
ENCODING 225
SWIDTH 562 0
DWIDTH 9 0
BBX 8 11 0 0
BITMAP
0C
18
00
3C
7E
E7
C3
C3
E7
7F
3F
ENDCHAR
STARTCHAR acircumflex
ENCODING 226
SWIDTH 562 0
DWIDTH 9 0
BBX 8 11 0 0
BITMAP
18
3C
00
3C
7E
E7
C3
C3
E7
7F
3F
ENDCHAR
STARTCHAR atilde
ENCODING 227
SWIDTH 562 0
DWIDTH 9 0
BBX 8 11 0 0
BITMAP
1A
2C
00
3C
7E
E7
C3
C3
E7
7F
3F
ENDCHAR
STARTCHAR adieresis
ENCODING 228
SWIDTH 562 0
DWIDTH 9 0
BBX 8 11 0 0
BITMAP
66
66
00
3C
7E
E7
C3
C3
E7
7F
3F
ENDCHAR
STARTCHAR aring
ENCODING 229
SWIDTH 562 0
DWIDTH 9 0
BBX 8 12 0 0
BITMAP
18
24
24
18
3C
7E
E7
C3
C3
E7
7F
3F
ENDCHAR
STARTCHAR ae
ENCODING 230
SWIDTH 875 0
DWIDTH 14 0
BBX 13 8 0 0
BITMAP
79E0
FFF0
1F70
7EE0
E7D8
CFB8
FFF0
79E0
ENDCHAR
STARTCHAR ccedilla
ENCODING 231
SWIDTH 500 0
DWIDTH 8 0
BBX 7 11 0 -3
BITMAP
3C
7E
E6
C0
C0
E6
7E
3C
08
0C
18
ENDCHAR
STARTCHAR egrave
ENCODING 232
SWIDTH 562 0
DWIDTH 9 0
BBX 8 11 0 0
BITMAP
30
18
00
3C
7E
EE
DC
FB
F7
7E
3C
ENDCHAR
STARTCHAR eacute
ENCODING 233
SWIDTH 562 0
DWIDTH 9 0
BBX 8 11 0 0
BITMAP
0C
18
00
3C
7E
EE
DC
FB
F7
7E
3C
ENDCHAR
STARTCHAR ecircumflex
ENCODING 234
SWIDTH 562 0
DWIDTH 9 0
BBX 8 11 0 0
BITMAP
18
3C
00
3C
7E
EE
DC
FB
F7
7E
3C
ENDCHAR
STARTCHAR edieresis
ENCODING 235
SWIDTH 562 0
DWIDTH 9 0
BBX 8 11 0 0
BITMAP
66
66
00
3C
7E
EE
DC
FB
F7
7E
3C
ENDCHAR
STARTCHAR igrave
ENCODING 236
SWIDTH 250 0
DWIDTH 4 0
BBX 3 10 0 0
BITMAP
C0
60
00
C0
C0
C0
C0
C0
E0
60
ENDCHAR
STARTCHAR iacute
ENCODING 237
SWIDTH 250 0
DWIDTH 4 0
BBX 3 10 0 0
BITMAP
60
C0
00
C0
C0
C0
C0
C0
E0
60
ENDCHAR
STARTCHAR icircumflex
ENCODING 238
SWIDTH 250 0
DWIDTH 4 0
BBX 4 10 -1 0
BITMAP
60
F0
00
60
60
60
60
60
70
30
ENDCHAR
STARTCHAR idieresis
ENCODING 239
SWIDTH 250 0
DWIDTH 4 0
BBX 4 10 -1 0
BITMAP
90
90
00
60
60
60
60
60
70
30
ENDCHAR
STARTCHAR eth
ENCODING 240
SWIDTH 562 0
DWIDTH 9 0
BBX 8 10 0 0
BITMAP
1C
0F
36
7F
E7
C3
C3
E7
7E
3C
ENDCHAR
STARTCHAR ntilde
ENCODING 241
SWIDTH 562 0
DWIDTH 9 0
BBX 8 11 0 0
BITMAP
3A
5C
00
3C
7E
E7
C3
C3
C3
C3
C3
ENDCHAR
STARTCHAR ograve
ENCODING 242
SWIDTH 562 0
DWIDTH 9 0
BBX 8 11 0 0
BITMAP
30
18
00
3C
7E
E7
C3
C3
E7
7E
3C
ENDCHAR
STARTCHAR oacute
ENCODING 243
SWIDTH 562 0
DWIDTH 9 0
BBX 8 11 0 0
BITMAP
0C
18
00
3C
7E
E7
C3
C3
E7
7E
3C
ENDCHAR
STARTCHAR ocircumflex
ENCODING 244
SWIDTH 562 0
DWIDTH 9 0
BBX 8 11 0 0
BITMAP
18
3C
00
3C
7E
E7
C3
C3
E7
7E
3C
ENDCHAR
STARTCHAR otilde
ENCODING 245
SWIDTH 562 0
DWIDTH 9 0
BBX 8 11 0 0
BITMAP
3A
5C
00
3C
7E
E7
C3
C3
E7
7E
3C
ENDCHAR
STARTCHAR odieresis
ENCODING 246
SWIDTH 562 0
DWIDTH 9 0
BBX 8 11 0 0
BITMAP
66
66
00
3C
7E
E7
C3
C3
E7
7E
3C
ENDCHAR
STARTCHAR divide
ENCODING 247
SWIDTH 437 0
DWIDTH 7 0
BBX 6 8 0 0
BITMAP
30
30
00
FC
FC
00
30
30
ENDCHAR
STARTCHAR oslash
ENCODING 248
SWIDTH 562 0
DWIDTH 9 0
BBX 8 8 0 0
BITMAP
3F
7F
EE
DF
FB
77
FE
FC
ENDCHAR
STARTCHAR ugrave
ENCODING 249
SWIDTH 562 0
DWIDTH 9 0
BBX 8 11 0 0
BITMAP
30
18
00
C3
C3
C3
C3
C3
E7
7E
3C
ENDCHAR
STARTCHAR uacute
ENCODING 250
SWIDTH 562 0
DWIDTH 9 0
BBX 8 11 0 0
BITMAP
0C
18
00
C3
C3
C3
C3
C3
E7
7E
3C
ENDCHAR
STARTCHAR ucircumflex
ENCODING 251
SWIDTH 562 0
DWIDTH 9 0
BBX 8 11 0 0
BITMAP
18
3C
00
C3
C3
C3
C3
C3
E7
7E
3C
ENDCHAR
STARTCHAR udieresis
ENCODING 252
SWIDTH 562 0
DWIDTH 9 0
BBX 8 11 0 0
BITMAP
66
66
00
C3
C3
C3
C3
C3
E7
7E
3C
ENDCHAR
STARTCHAR yacute
ENCODING 253
SWIDTH 562 0
DWIDTH 9 0
BBX 8 14 0 -3
BITMAP
0C
18
00
C3
C3
C3
C3
C3
E7
7F
3B
07
1E
1C
ENDCHAR
STARTCHAR thorn
ENCODING 254
SWIDTH 562 0
DWIDTH 9 0
BBX 8 12 0 -2
BITMAP
C0
C0
DC
FE
E7
C3
C3
E7
FE
DC
C0
C0
ENDCHAR
STARTCHAR ydieresis
ENCODING 255
SWIDTH 562 0
DWIDTH 9 0
BBX 8 14 0 -3
BITMAP
66
66
00
C3
C3
C3
C3
C3
E7
7F
3B
07
1E
1C
ENDCHAR
STARTCHAR Amacron
ENCODING 256
SWIDTH 562 0
DWIDTH 9 0
BBX 8 12 0 0
BITMAP
7E
7E
00
3C
7E
E7
C3
FF
FF
C3
C3
C3
ENDCHAR
STARTCHAR amacron
ENCODING 257
SWIDTH 562 0
DWIDTH 9 0
BBX 8 11 0 0
BITMAP
7E
7E
00
3C
7E
E7
C3
C3
E7
7F
3F
ENDCHAR
STARTCHAR Abreve
ENCODING 258
SWIDTH 562 0
DWIDTH 9 0
BBX 8 12 0 0
BITMAP
66
3C
00
3C
7E
E7
C3
FF
FF
C3
C3
C3
ENDCHAR
STARTCHAR abreve
ENCODING 259
SWIDTH 562 0
DWIDTH 9 0
BBX 8 11 0 0
BITMAP
66
3C
00
3C
7E
E7
C3
C3
E7
7F
3F
ENDCHAR
STARTCHAR Aogonek
ENCODING 260
SWIDTH 562 0
DWIDTH 9 0
BBX 8 13 0 -3
BITMAP
3C
7E
E7
C3
FF
FF
C3
C3
C3
C3
02
06
03
ENDCHAR
STARTCHAR aogonek
ENCODING 261
SWIDTH 562 0
DWIDTH 9 0
BBX 8 11 0 -3
BITMAP
3C
7E
E7
C3
C3
E7
7F
3F
02
06
03
ENDCHAR
STARTCHAR Cacute
ENCODING 262
SWIDTH 625 0
DWIDTH 10 0
BBX 9 12 0 0
BITMAP
0C00
1800
0000
3E00
7F00
E380
C100
C000
C100
E380
7F00
3E00
ENDCHAR
STARTCHAR cacute
ENCODING 263
SWIDTH 500 0
DWIDTH 8 0
BBX 7 11 0 0
BITMAP
0C
18
00
3C
7E
E6
C0
C0
E6
7E
3C
ENDCHAR
STARTCHAR Ccircumflex
ENCODING 264
SWIDTH 625 0
DWIDTH 10 0
BBX 9 12 0 0
BITMAP
0C00
1E00
0000
3E00
7F00
E380
C100
C000
C100
E380
7F00
3E00
ENDCHAR
STARTCHAR ccircumflex
ENCODING 265
SWIDTH 500 0
DWIDTH 8 0
BBX 7 11 0 0
BITMAP
18
3C
00
3C
7E
E6
C0
C0
E6
7E
3C
ENDCHAR
STARTCHAR Cdotaccent
ENCODING 266
SWIDTH 625 0
DWIDTH 10 0
BBX 9 12 0 0
BITMAP
0C00
0C00
0000
3E00
7F00
E380
C100
C000
C100
E380
7F00
3E00
ENDCHAR
STARTCHAR cdotaccent
ENCODING 267
SWIDTH 500 0
DWIDTH 8 0
BBX 7 11 0 0
BITMAP
18
18
00
3C
7E
E6
C0
C0
E6
7E
3C
ENDCHAR
STARTCHAR Ccaron
ENCODING 268
SWIDTH 625 0
DWIDTH 10 0
BBX 9 12 0 0
BITMAP
1E00
0C00
0000
3E00
7F00
E380
C100
C000
C100
E380
7F00
3E00
ENDCHAR
STARTCHAR ccaron
ENCODING 269
SWIDTH 500 0
DWIDTH 8 0
BBX 7 11 0 0
BITMAP
3C
18
00
3C
7E
E6
C0
C0
E6
7E
3C
ENDCHAR
STARTCHAR Dcaron
ENCODING 270
SWIDTH 562 0
DWIDTH 9 0
BBX 8 12 0 0
BITMAP
3C
18
00
7C
FE
C7
C3
C3
C3
C7
FE
FC
ENDCHAR
STARTCHAR dcaron
ENCODING 271
SWIDTH 750 0
DWIDTH 12 0
BBX 11 10 0 0
BITMAP
0360
0360
3B40
7F00
E700
C300
C300
E700
7E00
3C00
ENDCHAR
STARTCHAR Dcroat
ENCODING 272
SWIDTH 562 0
DWIDTH 9 0
BBX 9 10 -1 0
BITMAP
3E00
7F00
6380
6180
F980
F980
6180
6380
7F00
7E00
ENDCHAR
STARTCHAR dcroat
ENCODING 273
SWIDTH 625 0
DWIDTH 10 0
BBX 9 10 0 0
BITMAP
0F80
0300
3B00
7F00
E700
C300
C300
E700
7E00
3C00
ENDCHAR
STARTCHAR Emacron
ENCODING 274
SWIDTH 437 0
DWIDTH 7 0
BBX 6 12 0 0
BITMAP
7C
7C
00
3C
7C
E0
F8
F8
C0
E0
7C
3C
ENDCHAR
STARTCHAR emacron
ENCODING 275
SWIDTH 562 0
DWIDTH 9 0
BBX 8 11 0 0
BITMAP
7E
7E
00
3C
7E
EE
DC
FB
F7
7E
3C
ENDCHAR
STARTCHAR Ebreve
ENCODING 276
SWIDTH 437 0
DWIDTH 7 0
BBX 6 12 0 0
BITMAP
6C
38
00
3C
7C
E0
F8
F8
C0
E0
7C
3C
ENDCHAR
STARTCHAR ebreve
ENCODING 277
SWIDTH 562 0
DWIDTH 9 0
BBX 8 11 0 0
BITMAP
66
3C
00
3C
7E
EE
DC
FB
F7
7E
3C
ENDCHAR
STARTCHAR Edotaccent
ENCODING 278
SWIDTH 437 0
DWIDTH 7 0
BBX 6 12 0 0
BITMAP
18
18
00
3C
7C
E0
F8
F8
C0
E0
7C
3C
ENDCHAR
STARTCHAR edotaccent
ENCODING 279
SWIDTH 562 0
DWIDTH 9 0
BBX 8 11 0 0
BITMAP
18
18
00
3C
7E
EE
DC
FB
F7
7E
3C
ENDCHAR
STARTCHAR Eogonek
ENCODING 280
SWIDTH 437 0
DWIDTH 7 0
BBX 6 13 0 -3
BITMAP
3C
7C
E0
C0
F8
F8
C0
E0
7C
3C
08
18
0C
ENDCHAR
STARTCHAR eogonek
ENCODING 281
SWIDTH 562 0
DWIDTH 9 0
BBX 8 11 0 -3
BITMAP
3C
7E
EE
DC
FB
F7
7E
3C
08
18
0C
ENDCHAR
STARTCHAR Ecaron
ENCODING 282
SWIDTH 437 0
DWIDTH 7 0
BBX 6 12 0 0
BITMAP
3C
18
00
3C
7C
E0
F8
F8
C0
E0
7C
3C
ENDCHAR
STARTCHAR ecaron
ENCODING 283
SWIDTH 562 0
DWIDTH 9 0
BBX 8 11 0 0
BITMAP
3C
18
00
3C
7E
EE
DC
FB
F7
7E
3C
ENDCHAR
STARTCHAR Gcircumflex
ENCODING 284
SWIDTH 625 0
DWIDTH 10 0
BBX 9 12 0 0
BITMAP
0C00
1E00
0000
3E00
7F00
E380
C000
C780
C180
E380
7F00
3E00
ENDCHAR
STARTCHAR gcircumflex
ENCODING 285
SWIDTH 562 0
DWIDTH 9 0
BBX 8 14 0 -3
BITMAP
18
3C
00
3C
7E
E7
C3
C3
E7
7F
3B
07
1E
1C
ENDCHAR
STARTCHAR Gbreve
ENCODING 286
SWIDTH 625 0
DWIDTH 10 0
BBX 9 12 0 0
BITMAP
3600
1C00
0000
3E00
7F00
E380
C000
C780
C180
E380
7F00
3E00
ENDCHAR
STARTCHAR gbreve
ENCODING 287
SWIDTH 562 0
DWIDTH 9 0
BBX 8 14 0 -3
BITMAP
66
3C
00
3C
7E
E7
C3
C3
E7
7F
3B
07
1E
1C
ENDCHAR
STARTCHAR Gdotaccent
ENCODING 288
SWIDTH 625 0
DWIDTH 10 0
BBX 9 12 0 0
BITMAP
0C00
0C00
0000
3E00
7F00
E380
C000
C780
C180
E380
7F00
3E00
ENDCHAR
STARTCHAR gdotaccent
ENCODING 289
SWIDTH 562 0
DWIDTH 9 0
BBX 8 14 0 -3
BITMAP
18
18
00
3C
7E
E7
C3
C3
E7
7F
3B
07
1E
1C
ENDCHAR
STARTCHAR Gcommaaccent
ENCODING 290
SWIDTH 625 0
DWIDTH 10 0
BBX 9 14 0 -4
BITMAP
3E00
7F00
E380
C180
C000
C780
C180
E380
7F00
3E00
0000
0C00
0C00
1800
ENDCHAR
STARTCHAR gcommaaccent
ENCODING 291
SWIDTH 562 0
DWIDTH 9 0
BBX 8 15 0 -3
BITMAP
0C
18
18
00
3C
7E
E7
C3
C3
E7
7F
3B
07
1E
1C
ENDCHAR
STARTCHAR Hcircumflex
ENCODING 292
SWIDTH 562 0
DWIDTH 9 0
BBX 8 12 0 0
BITMAP
18
3C
81
C3
C3
C3
FF
FF
C3
C3
C3
C3
ENDCHAR
STARTCHAR hcircumflex
ENCODING 293
SWIDTH 562 0
DWIDTH 9 0
BBX 8 12 0 0
BITMAP
18
3C
80
C0
DC
FE
E7
C3
C3
C3
C3
C3
ENDCHAR
STARTCHAR Hbar
ENCODING 294
SWIDTH 625 0
DWIDTH 10 0
BBX 10 10 -1 0
BITMAP
6180
FFC0
6180
7F80
7F80
6180
6180
6180
6180
6180
ENDCHAR
STARTCHAR hbar
ENCODING 295
SWIDTH 562 0
DWIDTH 9 0
BBX 9 10 -1 0
BITMAP
F800
6000
6E00
7F00
7380
6180
6180
6180
6180
6180
ENDCHAR
STARTCHAR Itilde
ENCODING 296
SWIDTH 312 0
DWIDTH 5 0
BBX 6 12 -2 0
BITMAP
74
B8
00
30
30
30
30
30
30
30
30
30
ENDCHAR
STARTCHAR itilde
ENCODING 297
SWIDTH 312 0
DWIDTH 5 0
BBX 6 10 -2 0
BITMAP
74
B8
00
30
30
30
30
30
38
18
ENDCHAR
STARTCHAR Imacron
ENCODING 298
SWIDTH 250 0
DWIDTH 4 0
BBX 4 12 -1 0
BITMAP
F0
F0
00
60
60
60
60
60
60
60
60
60
ENDCHAR
STARTCHAR imacron
ENCODING 299
SWIDTH 250 0
DWIDTH 4 0
BBX 4 10 -1 0
BITMAP
F0
F0
00
60
60
60
60
60
70
30
ENDCHAR
STARTCHAR Ibreve
ENCODING 300
SWIDTH 312 0
DWIDTH 5 0
BBX 5 12 -1 0
BITMAP
D8
70
00
60
60
60
60
60
60
60
60
60
ENDCHAR
STARTCHAR ibreve
ENCODING 301
SWIDTH 312 0
DWIDTH 5 0
BBX 5 10 -1 0
BITMAP
D8
70
00
60
60
60
60
60
70
30
ENDCHAR
STARTCHAR Iogonek
ENCODING 302
SWIDTH 187 0
DWIDTH 3 0
BBX 3 13 -1 -3
BITMAP
60
60
60
60
60
60
60
60
60
60
40
C0
60
ENDCHAR
STARTCHAR iogonek
ENCODING 303
SWIDTH 187 0
DWIDTH 3 0
BBX 3 13 -1 -3
BITMAP
60
60
00
60
60
60
60
60
60
60
40
C0
60
ENDCHAR
STARTCHAR Idotaccent
ENCODING 304
SWIDTH 187 0
DWIDTH 3 0
BBX 2 12 0 0
BITMAP
C0
C0
00
C0
C0
C0
C0
C0
C0
C0
C0
C0
ENDCHAR
STARTCHAR dotlessi
ENCODING 305
SWIDTH 250 0
DWIDTH 4 0
BBX 3 7 0 0
BITMAP
C0
C0
C0
C0
C0
E0
60
ENDCHAR
STARTCHAR IJ
ENCODING 306
SWIDTH 562 0
DWIDTH 9 0
BBX 7 11 1 -1
BITMAP
CE
CE
C6
C6
C6
C6
06
C6
CE
FC
78
ENDCHAR
STARTCHAR ij
ENCODING 307
SWIDTH 437 0
DWIDTH 7 0
BBX 6 14 0 -3
BITMAP
CC
CC
00
CC
CC
CC
CC
CC
EC
7C
3C
1C
78
70
ENDCHAR
STARTCHAR Jcircumflex
ENCODING 308
SWIDTH 312 0
DWIDTH 5 0
BBX 4 13 0 -1
BITMAP
20
70
00
70
70
30
30
30
30
30
70
E0
C0
ENDCHAR
STARTCHAR jcircumflex
ENCODING 309
SWIDTH 312 0
DWIDTH 5 0
BBX 4 13 0 -3
BITMAP
60
F0
00
60
60
60
60
60
60
60
60
E0
C0
ENDCHAR
STARTCHAR Kcommaaccent
ENCODING 310
SWIDTH 500 0
DWIDTH 8 0
BBX 7 14 0 -4
BITMAP
CC
CC
CC
DC
F8
FC
CE
C6
C6
C6
00
18
18
30
ENDCHAR
STARTCHAR kcommaaccent
ENCODING 311
SWIDTH 500 0
DWIDTH 8 0
BBX 7 14 0 -4
BITMAP
C0
C0
CC
DC
F8
FC
CE
C6
C6
C6
00
18
18
30
ENDCHAR
STARTCHAR kgreenlandic
ENCODING 312
SWIDTH 437 0
DWIDTH 7 0
BBX 6 7 0 0
BITMAP
CC
CC
F8
F8
CC
CC
CC
ENDCHAR
STARTCHAR Lacute
ENCODING 313
SWIDTH 375 0
DWIDTH 6 0
BBX 5 12 0 0
BITMAP
60
C0
00
C0
C0
C0
C0
C0
C0
E0
78
38
ENDCHAR
STARTCHAR lacute
ENCODING 314
SWIDTH 250 0
DWIDTH 4 0
BBX 3 12 0 0
BITMAP
60
C0
00
C0
C0
C0
C0
C0
C0
C0
E0
60
ENDCHAR
STARTCHAR Lcommaaccent
ENCODING 315
SWIDTH 375 0
DWIDTH 6 0
BBX 5 14 0 -4
BITMAP
C0
C0
C0
C0
C0
C0
C0
E0
78
38
00
30
30
60
ENDCHAR
STARTCHAR lcommaaccent
ENCODING 316
SWIDTH 250 0
DWIDTH 4 0
BBX 3 14 0 -4
BITMAP
C0
C0
C0
C0
C0
C0
C0
C0
E0
60
00
60
60
C0
ENDCHAR
STARTCHAR Lcaron
ENCODING 317
SWIDTH 375 0
DWIDTH 6 0
BBX 5 10 0 0
BITMAP
D8
D8
D0
C0
C0
C0
C0
E0
78
38
ENDCHAR
STARTCHAR lcaron
ENCODING 318
SWIDTH 375 0
DWIDTH 6 0
BBX 5 10 0 0
BITMAP
D8
D8
D0
C0
C0
C0
C0
C0
E0
60
ENDCHAR
STARTCHAR Ldot
ENCODING 319
SWIDTH 375 0
DWIDTH 6 0
BBX 5 10 0 0
BITMAP
C0
C0
C0
C0
D8
D8
C0
E0
78
38
ENDCHAR
STARTCHAR ldot
ENCODING 320
SWIDTH 375 0
DWIDTH 6 0
BBX 5 10 0 0
BITMAP
C0
C0
C0
C0
D8
D8
C0
C0
E0
60
ENDCHAR
STARTCHAR Lslash
ENCODING 321
SWIDTH 375 0
DWIDTH 6 0
BBX 6 10 -1 0
BITMAP
60
60
68
78
70
E0
E0
70
3C
1C
ENDCHAR
STARTCHAR lslash
ENCODING 322
SWIDTH 250 0
DWIDTH 4 0
BBX 4 10 -1 0
BITMAP
60
60
60
70
70
E0
E0
60
70
30
ENDCHAR
STARTCHAR Nacute
ENCODING 323
SWIDTH 562 0
DWIDTH 9 0
BBX 8 12 0 0
BITMAP
0C
18
00
3C
7E
E7
C3
C3
C3
C3
C3
C3
ENDCHAR
STARTCHAR nacute
ENCODING 324
SWIDTH 562 0
DWIDTH 9 0
BBX 8 11 0 0
BITMAP
0C
18
00
3C
7E
E7
C3
C3
C3
C3
C3
ENDCHAR
STARTCHAR Ncommaaccent
ENCODING 325
SWIDTH 562 0
DWIDTH 9 0
BBX 8 14 0 -4
BITMAP
3C
7E
E7
C3
C3
C3
C3
C3
C3
C3
00
18
18
30
ENDCHAR
STARTCHAR ncommaaccent
ENCODING 326
SWIDTH 562 0
DWIDTH 9 0
BBX 8 12 0 -4
BITMAP
3C
7E
E7
C3
C3
C3
C3
C3
00
18
18
30
ENDCHAR
STARTCHAR Ncaron
ENCODING 327
SWIDTH 562 0
DWIDTH 9 0
BBX 8 12 0 0
BITMAP
3C
18
00
3C
7E
E7
C3
C3
C3
C3
C3
C3
ENDCHAR
STARTCHAR ncaron
ENCODING 328
SWIDTH 562 0
DWIDTH 9 0
BBX 8 11 0 0
BITMAP
3C
18
00
3C
7E
E7
C3
C3
C3
C3
C3
ENDCHAR
STARTCHAR napostrophe
ENCODING 329
SWIDTH 562 0
DWIDTH 9 0
BBX 8 11 0 0
BITMAP
C0
C0
80
3C
7E
E7
C3
C3
C3
C3
C3
ENDCHAR
STARTCHAR Eng
ENCODING 330
SWIDTH 562 0
DWIDTH 9 0
BBX 8 13 0 -3
BITMAP
3C
7E
E7
C3
C3
C3
C3
C3
C3
C3
03
07
06
ENDCHAR
STARTCHAR eng
ENCODING 331
SWIDTH 562 0
DWIDTH 9 0
BBX 8 11 0 -3
BITMAP
3C
7E
E7
C3
C3
C3
C3
C3
03
07
06
ENDCHAR
STARTCHAR Omacron
ENCODING 332
SWIDTH 625 0
DWIDTH 10 0
BBX 9 12 0 0
BITMAP
3E00
3E00
0000
3E00
7F00
E380
C180
C180
C180
E380
7F00
3E00
ENDCHAR
STARTCHAR omacron
ENCODING 333
SWIDTH 562 0
DWIDTH 9 0
BBX 8 11 0 0
BITMAP
7E
7E
00
3C
7E
E7
C3
C3
E7
7E
3C
ENDCHAR
STARTCHAR Obreve
ENCODING 334
SWIDTH 625 0
DWIDTH 10 0
BBX 9 12 0 0
BITMAP
3600
1C00
0000
3E00
7F00
E380
C180
C180
C180
E380
7F00
3E00
ENDCHAR
STARTCHAR obreve
ENCODING 335
SWIDTH 562 0
DWIDTH 9 0
BBX 8 11 0 0
BITMAP
66
3C
00
3C
7E
E7
C3
C3
E7
7E
3C
ENDCHAR
STARTCHAR Ohungarumlaut
ENCODING 336
SWIDTH 625 0
DWIDTH 10 0
BBX 9 12 0 0
BITMAP
1200
3600
2400
3E00
7F00
E380
C180
C180
C180
E380
7F00
3E00
ENDCHAR
STARTCHAR ohungarumlaut
ENCODING 337
SWIDTH 562 0
DWIDTH 9 0
BBX 8 12 0 0
BITMAP
12
36
24
00
3C
7E
E7
C3
C3
E7
7E
3C
ENDCHAR
STARTCHAR OE
ENCODING 338
SWIDTH 812 0
DWIDTH 13 0
BBX 12 10 0 0
BITMAP
3CF0
7FF0
E780
C300
C3E0
C3E0
C300
E780
7FF0
3CF0
ENDCHAR
STARTCHAR oe
ENCODING 339
SWIDTH 937 0
DWIDTH 15 0
BBX 14 8 0 0
BITMAP
3CF0
7FF8
E7B8
C370
C3EC
E7DC
7FF8
3CF0
ENDCHAR
STARTCHAR Racute
ENCODING 340
SWIDTH 562 0
DWIDTH 9 0
BBX 8 12 0 0
BITMAP
0C
18
00
3C
7E
E7
C3
E7
FE
FE
C7
C3
ENDCHAR
STARTCHAR racute
ENCODING 341
SWIDTH 375 0
DWIDTH 6 0
BBX 5 11 0 0
BITMAP
18
30
00
38
78
E0
C0
C0
C0
C0
C0
ENDCHAR
STARTCHAR Rcommaaccent
ENCODING 342
SWIDTH 562 0
DWIDTH 9 0
BBX 8 14 0 -4
BITMAP
3C
7E
E7
C3
C3
E7
FE
FE
C7
C3
00
18
18
30
ENDCHAR
STARTCHAR rcommaaccent
ENCODING 343
SWIDTH 375 0
DWIDTH 6 0
BBX 6 12 -1 -4
BITMAP
1C
3C
70
60
60
60
60
60
00
60
60
C0
ENDCHAR
STARTCHAR Rcaron
ENCODING 344
SWIDTH 562 0
DWIDTH 9 0
BBX 8 12 0 0
BITMAP
3C
18
00
3C
7E
E7
C3
E7
FE
FE
C7
C3
ENDCHAR
STARTCHAR rcaron
ENCODING 345
SWIDTH 375 0
DWIDTH 6 0
BBX 5 11 0 0
BITMAP
78
30
00
38
78
E0
C0
C0
C0
C0
C0
ENDCHAR
STARTCHAR Sacute
ENCODING 346
SWIDTH 562 0
DWIDTH 9 0
BBX 8 12 0 0
BITMAP
0C
18
00
3C
7E
60
7C
3E
47
E7
7E
3C
ENDCHAR
STARTCHAR sacute
ENCODING 347
SWIDTH 500 0
DWIDTH 8 0
BBX 7 11 0 0
BITMAP
18
30
00
7C
FC
F8
7C
0E
0E
FC
F8
ENDCHAR
STARTCHAR Scircumflex
ENCODING 348
SWIDTH 562 0
DWIDTH 9 0
BBX 8 12 0 0
BITMAP
18
3C
00
3C
7E
60
7C
3E
47
E7
7E
3C
ENDCHAR
STARTCHAR scircumflex
ENCODING 349
SWIDTH 500 0
DWIDTH 8 0
BBX 7 11 0 0
BITMAP
30
78
00
7C
FC
F8
7C
0E
0E
FC
F8
ENDCHAR
STARTCHAR Scedilla
ENCODING 350
SWIDTH 562 0
DWIDTH 9 0
BBX 8 13 0 -3
BITMAP
3C
7E
60
7C
3E
07
C3
E7
7E
3C
10
18
30
ENDCHAR
STARTCHAR scedilla
ENCODING 351
SWIDTH 500 0
DWIDTH 8 0
BBX 7 11 0 -3
BITMAP
7C
FC
F8
7C
0E
0E
FC
F8
20
30
60
ENDCHAR
STARTCHAR Scaron
ENCODING 352
SWIDTH 562 0
DWIDTH 9 0
BBX 8 12 0 0
BITMAP
3C
18
00
3C
7E
60
7C
3E
47
E7
7E
3C
ENDCHAR
STARTCHAR scaron
ENCODING 353
SWIDTH 500 0
DWIDTH 8 0
BBX 7 11 0 0
BITMAP
78
30
00
7C
FC
F8
7C
0E
0E
FC
F8
ENDCHAR
STARTCHAR Tcommaaccent
ENCODING 354
SWIDTH 437 0
DWIDTH 7 0
BBX 6 13 0 -3
BITMAP
FC
FC
30
30
30
30
30
30
30
30
10
18
30
ENDCHAR
STARTCHAR tcommaaccent
ENCODING 355
SWIDTH 312 0
DWIDTH 5 0
BBX 4 13 0 -3
BITMAP
C0
C0
F0
F0
C0
C0
C0
C0
F0
70
20
30
60
ENDCHAR
STARTCHAR Tcaron
ENCODING 356
SWIDTH 437 0
DWIDTH 7 0
BBX 6 12 0 0
BITMAP
78
30
00
FC
FC
30
30
30
30
30
30
30
ENDCHAR
STARTCHAR tcaron
ENCODING 357
SWIDTH 437 0
DWIDTH 7 0
BBX 6 10 0 0
BITMAP
CC
CC
E8
F0
C0
C0
C0
C0
F0
70
ENDCHAR
STARTCHAR Tbar
ENCODING 358
SWIDTH 437 0
DWIDTH 7 0
BBX 6 10 0 0
BITMAP
FC
FC
30
30
FC
30
30
30
30
30
ENDCHAR
STARTCHAR tbar
ENCODING 359
SWIDTH 312 0
DWIDTH 5 0
BBX 5 10 -1 0
BITMAP
60
60
78
78
60
F8
60
60
78
38
ENDCHAR
STARTCHAR Utilde
ENCODING 360
SWIDTH 562 0
DWIDTH 9 0
BBX 8 12 0 0
BITMAP
3A
5C
00
C3
C3
C3
C3
C3
C3
E7
7E
3C
ENDCHAR
STARTCHAR utilde
ENCODING 361
SWIDTH 562 0
DWIDTH 9 0
BBX 8 11 0 0
BITMAP
3A
5C
00
C3
C3
C3
C3
C3
E7
7E
3C
ENDCHAR
STARTCHAR Umacron
ENCODING 362
SWIDTH 562 0
DWIDTH 9 0
BBX 8 12 0 0
BITMAP
7E
7E
00
C3
C3
C3
C3
C3
C3
E7
7E
3C
ENDCHAR
STARTCHAR umacron
ENCODING 363
SWIDTH 562 0
DWIDTH 9 0
BBX 8 11 0 0
BITMAP
7E
7E
00
C3
C3
C3
C3
C3
E7
7E
3C
ENDCHAR
STARTCHAR Ubreve
ENCODING 364
SWIDTH 562 0
DWIDTH 9 0
BBX 8 12 0 0
BITMAP
66
3C
00
C3
C3
C3
C3
C3
C3
E7
7E
3C
ENDCHAR
STARTCHAR ubreve
ENCODING 365
SWIDTH 562 0
DWIDTH 9 0
BBX 8 11 0 0
BITMAP
66
3C
00
C3
C3
C3
C3
C3
E7
7E
3C
ENDCHAR
STARTCHAR Uring
ENCODING 366
SWIDTH 562 0
DWIDTH 9 0
BBX 8 12 0 0
BITMAP
18
24
E7
DB
C3
C3
C3
C3
C3
E7
7E
3C
ENDCHAR
STARTCHAR uring
ENCODING 367
SWIDTH 562 0
DWIDTH 9 0
BBX 8 12 0 0
BITMAP
18
24
24
18
C3
C3
C3
C3
C3
E7
7E
3C
ENDCHAR
STARTCHAR Uhungarumlaut
ENCODING 368
SWIDTH 562 0
DWIDTH 9 0
BBX 8 12 0 0
BITMAP
12
36
24
C3
C3
C3
C3
C3
C3
E7
7E
3C
ENDCHAR
STARTCHAR uhungarumlaut
ENCODING 369
SWIDTH 562 0
DWIDTH 9 0
BBX 8 12 0 0
BITMAP
12
36
24
00
C3
C3
C3
C3
C3
E7
7E
3C
ENDCHAR
STARTCHAR Uogonek
ENCODING 370
SWIDTH 562 0
DWIDTH 9 0
BBX 8 13 0 -3
BITMAP
C3
C3
C3
C3
C3
C3
C3
E7
7E
3C
08
18
0C
ENDCHAR
STARTCHAR uogonek
ENCODING 371
SWIDTH 562 0
DWIDTH 9 0
BBX 8 11 0 -3
BITMAP
C3
C3
C3
C3
C3
E7
7E
3E
08
18
0C
ENDCHAR
STARTCHAR Wcircumflex
ENCODING 372
SWIDTH 812 0
DWIDTH 13 0
BBX 12 12 0 0
BITMAP
0600
0F00
C030
C630
C630
C630
C630
C630
C630
EF70
7FE0
39C0
ENDCHAR
STARTCHAR wcircumflex
ENCODING 373
SWIDTH 812 0
DWIDTH 13 0
BBX 12 11 0 0
BITMAP
0600
0F00
0000
C630
C630
C630
C630
C630
EF70
7FE0
39C0
ENDCHAR
STARTCHAR Ycircumflex
ENCODING 374
SWIDTH 562 0
DWIDTH 9 0
BBX 8 12 0 0
BITMAP
18
3C
81
C3
C3
C3
E7
7E
3C
18
18
18
ENDCHAR
STARTCHAR ycircumflex
ENCODING 375
SWIDTH 562 0
DWIDTH 9 0
BBX 8 14 0 -3
BITMAP
18
3C
00
C3
C3
C3
C3
C3
E7
7F
3B
07
1E
1C
ENDCHAR
STARTCHAR Ydieresis
ENCODING 376
SWIDTH 562 0
DWIDTH 9 0
BBX 8 12 0 0
BITMAP
66
66
00
C3
C3
C3
E7
7E
3C
18
18
18
ENDCHAR
STARTCHAR Zacute
ENCODING 377
SWIDTH 500 0
DWIDTH 8 0
BBX 7 12 0 0
BITMAP
18
30
00
FE
FE
1C
18
30
70
60
FE
FE
ENDCHAR
STARTCHAR zacute
ENCODING 378
SWIDTH 500 0
DWIDTH 8 0
BBX 7 11 0 0
BITMAP
18
30
00
FE
FE
1C
18
38
70
FE
FE
ENDCHAR
STARTCHAR Zdotaccent
ENCODING 379
SWIDTH 500 0
DWIDTH 8 0
BBX 7 12 0 0
BITMAP
18
18
00
FE
FE
1C
18
30
70
60
FE
FE
ENDCHAR
STARTCHAR zdotaccent
ENCODING 380
SWIDTH 500 0
DWIDTH 8 0
BBX 7 11 0 0
BITMAP
18
18
00
FE
FE
1C
18
38
70
FE
FE
ENDCHAR
STARTCHAR Zcaron
ENCODING 381
SWIDTH 500 0
DWIDTH 8 0
BBX 7 12 0 0
BITMAP
3C
18
00
FE
FE
1C
18
30
70
60
FE
FE
ENDCHAR
STARTCHAR zcaron
ENCODING 382
SWIDTH 500 0
DWIDTH 8 0
BBX 7 11 0 0
BITMAP
78
30
00
FE
FE
1C
18
38
70
FE
FE
ENDCHAR
STARTCHAR longs
ENCODING 383
SWIDTH 375 0
DWIDTH 6 0
BBX 5 10 0 0
BITMAP
38
78
E0
C0
C0
C0
C0
C0
C0
C0
ENDCHAR
STARTCHAR Scommaaccent
ENCODING 536
SWIDTH 562 0
DWIDTH 9 0
BBX 8 14 0 -4
BITMAP
3C
7E
60
7C
3E
07
C3
E7
7E
3C
00
18
18
30
ENDCHAR
STARTCHAR scommaaccent
ENCODING 537
SWIDTH 500 0
DWIDTH 8 0
BBX 7 12 0 -4
BITMAP
7C
FC
F8
7C
0E
0E
FC
F8
00
30
30
60
ENDCHAR
STARTCHAR uni021A
ENCODING 538
SWIDTH 437 0
DWIDTH 7 0
BBX 6 14 0 -4
BITMAP
FC
FC
30
30
30
30
30
30
30
30
00
30
30
60
ENDCHAR
STARTCHAR uni021B
ENCODING 539
SWIDTH 312 0
DWIDTH 5 0
BBX 4 14 0 -4
BITMAP
C0
C0
F0
F0
C0
C0
C0
C0
F0
70
00
60
60
C0
ENDCHAR
STARTCHAR uni1E02
ENCODING 7682
SWIDTH 562 0
DWIDTH 9 0
BBX 8 12 0 0
BITMAP
30
30
00
78
FC
CC
FC
FE
C7
C7
FE
FC
ENDCHAR
STARTCHAR uni1E03
ENCODING 7683
SWIDTH 562 0
DWIDTH 9 0
BBX 8 11 0 0
BITMAP
18
D8
C0
DC
FE
E7
C3
C3
E7
7E
3C
ENDCHAR
STARTCHAR uni1E0A
ENCODING 7690
SWIDTH 562 0
DWIDTH 9 0
BBX 8 12 0 0
BITMAP
18
18
00
7C
FE
C7
C3
C3
C3
C7
FE
FC
ENDCHAR
STARTCHAR uni1E0B
ENCODING 7691
SWIDTH 562 0
DWIDTH 9 0
BBX 8 11 0 0
BITMAP
30
33
03
3B
7F
E7
C3
C3
E7
7E
3C
ENDCHAR
STARTCHAR uni1E1E
ENCODING 7710
SWIDTH 437 0
DWIDTH 7 0
BBX 6 12 0 0
BITMAP
18
18
00
3C
7C
E0
C0
F8
F8
C0
C0
C0
ENDCHAR
STARTCHAR uni1E1F
ENCODING 7711
SWIDTH 375 0
DWIDTH 6 0
BBX 5 12 0 0
BITMAP
30
30
00
38
78
E0
C0
F0
F0
C0
C0
C0
ENDCHAR
STARTCHAR uni1E40
ENCODING 7744
SWIDTH 812 0
DWIDTH 13 0
BBX 12 12 0 0
BITMAP
0600
0600
0000
39C0
7FE0
EF70
C630
C630
C630
C630
C630
C630
ENDCHAR
STARTCHAR uni1E41
ENCODING 7745
SWIDTH 812 0
DWIDTH 13 0
BBX 12 11 0 0
BITMAP
0600
0600
0000
39C0
7FE0
EF70
C630
C630
C630
C630
C630
ENDCHAR
STARTCHAR uni1E56
ENCODING 7766
SWIDTH 562 0
DWIDTH 9 0
BBX 8 12 0 0
BITMAP
18
18
00
3C
7E
E7
C3
C3
E7
FE
DC
C0
ENDCHAR
STARTCHAR uni1E57
ENCODING 7767
SWIDTH 562 0
DWIDTH 9 0
BBX 8 13 0 -2
BITMAP
18
18
00
3C
7E
E7
C3
C3
E7
FE
DC
C0
C0
ENDCHAR
STARTCHAR uni1E60
ENCODING 7776
SWIDTH 562 0
DWIDTH 9 0
BBX 8 12 0 0
BITMAP
18
18
00
3C
7E
60
7C
3E
47
E7
7E
3C
ENDCHAR
STARTCHAR uni1E61
ENCODING 7777
SWIDTH 500 0
DWIDTH 8 0
BBX 7 11 0 0
BITMAP
30
30
00
7C
FC
F8
7C
0E
0E
FC
F8
ENDCHAR
STARTCHAR uni1E6A
ENCODING 7786
SWIDTH 437 0
DWIDTH 7 0
BBX 6 12 0 0
BITMAP
30
30
00
FC
FC
30
30
30
30
30
30
30
ENDCHAR
STARTCHAR uni1E6B
ENCODING 7787
SWIDTH 312 0
DWIDTH 5 0
BBX 4 12 0 0
BITMAP
C0
C0
00
C0
F0
F0
C0
C0
C0
C0
F0
70
ENDCHAR
STARTCHAR endash
ENCODING 8211
SWIDTH 500 0
DWIDTH 8 0
BBX 7 2 0 3
BITMAP
FE
FE
ENDCHAR
STARTCHAR emdash
ENCODING 8212
SWIDTH 687 0
DWIDTH 11 0
BBX 10 2 0 3
BITMAP
FFC0
FFC0
ENDCHAR
STARTCHAR quoteleft
ENCODING 8216
SWIDTH 187 0
DWIDTH 3 0
BBX 2 3 0 7
BITMAP
C0
C0
80
ENDCHAR
STARTCHAR quoteright
ENCODING 8217
SWIDTH 187 0
DWIDTH 3 0
BBX 2 3 0 7
BITMAP
C0
C0
40
ENDCHAR
STARTCHAR quotesinglbase
ENCODING 8218
SWIDTH 187 0
DWIDTH 3 0
BBX 2 3 0 -1
BITMAP
C0
C0
40
ENDCHAR
STARTCHAR quotedblleft
ENCODING 8220
SWIDTH 375 0
DWIDTH 6 0
BBX 5 3 0 7
BITMAP
D8
D8
90
ENDCHAR
STARTCHAR quotedblright
ENCODING 8221
SWIDTH 375 0
DWIDTH 6 0
BBX 5 3 0 7
BITMAP
D8
D8
48
ENDCHAR
STARTCHAR quotedblbase
ENCODING 8222
SWIDTH 375 0
DWIDTH 6 0
BBX 5 3 0 -1
BITMAP
D8
D8
48
ENDCHAR
STARTCHAR ellipsis
ENCODING 8230
SWIDTH 562 0
DWIDTH 9 0
BBX 8 2 0 0
BITMAP
DB
DB
ENDCHAR
STARTCHAR perthousand
ENCODING 8240
SWIDTH 875 0
DWIDTH 14 0
BBX 13 10 0 0
BITMAP
6300
B300
B600
6600
0C00
0C00
19B0
1AD8
32D8
31B0
ENDCHAR
STARTCHAR guilsinglleft
ENCODING 8249
SWIDTH 312 0
DWIDTH 5 0
BBX 4 5 0 1
BITMAP
70
E0
C0
E0
70
ENDCHAR
STARTCHAR guilsinglright
ENCODING 8250
SWIDTH 312 0
DWIDTH 5 0
BBX 4 5 0 1
BITMAP
E0
70
30
70
E0
ENDCHAR
STARTCHAR Euro
ENCODING 8364
SWIDTH 437 0
DWIDTH 7 0
BBX 7 9 -1 0
BITMAP
1E
3E
70
FC
60
FC
70
3E
1E
ENDCHAR
STARTCHAR trademark
ENCODING 8482
SWIDTH 875 0
DWIDTH 14 0
BBX 13 4 0 6
BITMAP
F3F0
F6D8
66D8
66D8
ENDCHAR
STARTCHAR uni3000
ENCODING 12288
SWIDTH 1000 0
DWIDTH 16 0
BBX 1 1 0 0
BITMAP
00
ENDCHAR
STARTCHAR .notdef
ENCODING -1
SWIDTH 365 0
DWIDTH 6 0
BBX 5 11 1 0
BITMAP
F8
88
88
88
88
88
88
88
88
88
F8
ENDCHAR
STARTCHAR .null
ENCODING -1
SWIDTH 0 0
DWIDTH 0 0
BBX 1 1 0 0
BITMAP
00
ENDCHAR
STARTCHAR nonmarkingreturn
ENCODING -1
SWIDTH 333 0
DWIDTH 5 0
BBX 1 1 0 0
BITMAP
00
ENDCHAR
ENDFONT
